<svg width="120" height="120" viewBox="0 0 120 120" xmlns="http://www.w3.org/2000/svg">
  <defs>
    <linearGradient id="cu-gradient" x1="15%" y1="10%" x2="85%" y2="90%">
      <stop offset="0%" stop-color="#6366F1"/>
      <stop offset="33%" stop-color="#EC4899"/>
      <stop offset="66%" stop-color="#F97316"/>
      <stop offset="100%" stop-color="#22C55E"/>
    </linearGradient>
    <radialGradient id="cu-glow" cx="50%" cy="50%" r="70%">
      <stop offset="0%" stop-color="rgba(255,255,255,0.85)"/>
      <stop offset="45%" stop-color="rgba(255,255,255,0.2)"/>
      <stop offset="100%" stop-color="rgba(255,255,255,0)"/>
    </radialGradient>
  </defs>
  <rect x="10" y="10" width="100" height="100" rx="28" fill="url(#cu-gradient)"/>
  <circle cx="60" cy="60" r="38" fill="url(#cu-glow)"/>
  <path d="M60 28C43 28 28 43 28 60C28 77 43 92 60 92C77 92 92 77 92 60C92 43 77 28 60 28ZM60 84C47.2 84 36 72.8 36 60C36 47.2 47.2 36 60 36C72.8 36 84 47.2 84 60C84 72.8 72.8 84 60 84Z" fill="white" opacity="0.75"/>
  <circle cx="60" cy="60" r="20" fill="white" opacity="0.85"/>
  <circle cx="60" cy="60" r="12" fill="url(#cu-gradient)"/>
</svg>


